<?xml version="1.0" encoding="UTF-8"?>
<svg id="Layer_2" xmlns="http://www.w3.org/2000/svg" version="1.1" viewBox="0 0 461.8 48.2">
  <!-- Generator: Adobe Illustrator 29.0.1, SVG Export Plug-In . SVG Version: 2.1.0 Build 192)  -->
  <defs>
    <style>
      .st0 {
        fill: #fff;
      }
    </style>
  </defs>
  <g id="Calque_1">
    <g>
      <path class="st0" d="M0,15.1c19.1-8.1,7.9,13.1,13.7,21,2.2,3,7.5,2,9.3-1.4,3.6-6.5-.9-15.4,2.1-19.5,1.9-2.6,8.6-3.1,10.4-.4.7,1,2,13.4,2,15.6,0,1.7-.9,10.4-1.3,11.6-1.4,4.8-22,6.2-26.6,5.4-4.8-.8-7.6-3.4-9.6-7.6V15.1h0Z"/>
      <path class="st0" d="M77.9,1.6c1.6-1.6,7.3-1.8,9.2-.3,2.9,2.3-.3,11.5,4,12.8,3.3,1,10.7-2.6,17.9.7,8.1,3.7,8.3,25.2,2,30.3-7.7,6.2-15.1,1.2-22.3.8-2.9-.2-9.6,2.9-11.6-.2-1.1-1.6-.9-34.5-.5-38.9.1-1.5.2-4.1,1.3-5.1h0ZM94.2,23.1c-8.7,1.8-6.3,15.8,1.6,15.5,10.5-.3,9.3-17.7-1.6-15.5Z"/>
      <path class="st0" d="M325.6,28.4c-.7-3.8-3.2-6-7.1-5.2-8,1.6-2.8,15.6-5.1,20.5-1.5,3.1-10.5,5-11.3.5s.3-12.5,0-17.7c-.3-7.6-5.5-30.2,9.1-25.8,4.9,1.5.9,10.5,4.3,12.7,2.6,1.7,13.3-3,19.5,3.8,3.9,4.2,4.4,19.1,2.8,24.5-2.1,6.8-12.1,5.8-12.1,3.6,0-4.7.7-12.5,0-16.7h0Z"/>
      <path class="st0" d="M418.9,36.9c.7,1.1.2,4.4-.4,5.8-2.7,6.3-26.7,6.5-31.3,2.8-6.8-5.3-6.3-29,3.3-31.9,11.9-3.6,33.1-2.7,30.5,14.7-1.5,9.8-14.5,3.6-19.9,4.7-7.3,1.5-4.4,8.9,3.5,6.5,1.9-.6,2.8-3.2,6.2-3.7,1.6-.2,7.5,0,8.2,1.1h0ZM399,21.2c-3.8,1.2-.4,5.1,3.8,4.9,6.5-.3,3.6-7.2-3.8-4.9Z"/>
      <path class="st0" d="M254.6,36.9c.7,1.1.2,4.4-.4,5.8-2.7,6.3-26.7,6.5-31.3,2.8-5.1-3.9-4.9-24-1.5-28.8,4.1-5.7,24.7-5.3,30.3-2,4.5,2.7,7,13.1,3.5,17.1-4.3,5-24.3-2.3-23,5.3,1.1,6.9,12-1,14.3-1.3,1.6-.2,7.5,0,8.2,1.1h0ZM234.8,21.2c-3.8,1.2-.4,5.1,3.8,4.9,6.4-.3,3.6-7.2-3.8-4.9Z"/>
      <path class="st0" d="M454.5,24c6.3,4.5,8.5,9,6.7,17s-19.4,7.2-25.9,6.6c-15.4-1.3-11.7-14.2-.2-11.7,3.3.7,5.2,5,9.8,3.6,4.6-1.4,1.5-4.7-2.2-5.3-3.1-.5-7,1.3-11.2.3-7.7-1.8-10-14.9-3.2-19.5,4.1-2.7,21.1-2.8,25.9-1.3,6.4,1.9,7.5,9.8.2,10.2h0ZM447.6,24.9c.6-3.7-7.3-5.3-7.9-2.4-.7,3.2,6.2,2.5,7.9,2.4Z"/>
      <path class="st0" d="M355.9,13.4c4.5-.3,15.2,0,18.8,2.2,6.5,3.9,6.2,25.6.5,29.8-4.2,3-24.3,3-28.8.5-7-3.9-6.4-19.1-4.2-25.7,2-6.1,8.3-6.5,13.8-6.9h0ZM358.8,23.1c-7.5,1.1-7.8,16.6,2.7,14.6,7.9-1.5,5-15.7-2.7-14.6Z"/>
      <path class="st0" d="M131.6,13.4c5.4-.6,17.4-.7,20.9,4.1,3,4.2,4.6,23.5.5,27.1-1.1,1-3.6,1.6-5.1,1.8-3.8.5-14.7,1.2-18.5,1.1-8.5-.3-12.9-6.7-10.9-14.9.8-3.5,5.5-6.8,5.5-7.3,0-.4-2.3-1.7-2.8-3.1-2.3-7.4,5.2-8.3,10.4-8.9h0ZM130.8,24.9c2,.9,10.6,2.3,9.8-1.5-.5-2.7-9.1-1.8-9.8,1.5ZM141.6,37.7c3.4-5.4-13.3-5.3-9.4,0,1.3,1.8,8.9.7,9.4,0Z"/>
      <path class="st0" d="M182,28.4c-1.3-6.3-10.6-6.4-11.7,2-.9,6.9,3.2,16.3-7.4,16.3-2.7,0-4.1-.2-5-3-1.1-3.4-1-27.4,1.5-29.1,2.6-1.9,10.2.5,13.2.4,6.6-.2,16.6-5,20.8,4,1.9,4,2.5,21.6.4,25-2.3,3.7-11.7,3.2-11.7,1.1,0-4.4.8-13,0-16.7h0Z"/>
      <path class="st0" d="M273.7,36.5c4.9,5,11.6-3.5,16.1-3.6,10-.4,7.6,12.1-.5,14.2-5.2,1.3-19.4,1-24.2-1.5-7.2-3.6-6.9-23.2-1.9-28.6,5.6-6.1,31.4-6.7,33,4.5,1.8,13-13.4,2.4-16.7,1.8-7.6-1.6-9.2,9.6-5.7,13.2Z"/>
      <path class="st0" d="M42.4,46.4c-1.6-1-2.3-19-2.1-22s.6-10.2,3.4-10.3c7.7,1.2,26.1-5.2,28,6.4,1.1,6.6-1.3,9.7-8.1,8.1-2.5-.6-5.9-5.1-7.6-4.3-5.3,2.5-1.4,15-3.4,19.2-1.2,2.5-8.2,4-10.2,2.8h0Z"/>
    </g>
  </g>
</svg>