<?xml version="1.0" encoding="UTF-8"?>
<svg id="Layer_2" data-name="Layer 2" xmlns="http://www.w3.org/2000/svg" viewBox="0 0 461.75 48.16">
  <g id="Calque_1" data-name="Calque 1">
    <g>
      <path d="M0,15.11c19.14-8.05,7.88,13.13,13.71,20.96,2.19,2.95,7.46,2.03,9.33-1.37,3.56-6.49-.88-15.35,2.1-19.54,1.86-2.61,8.64-3.07,10.35-.38.66,1.04,1.99,13.42,1.97,15.57,0,1.67-.91,10.42-1.26,11.62-1.39,4.83-21.99,6.15-26.63,5.36-4.79-.82-7.59-3.36-9.58-7.63V15.11Z"/>
      <path d="M77.95,1.58c1.59-1.59,7.34-1.79,9.21-.32,2.94,2.31-.33,11.45,4.01,12.78,3.27,1,10.7-2.6,17.92.7,8.13,3.71,8.33,25.25,2.03,30.34-7.71,6.23-15.13,1.19-22.33.77-2.91-.17-9.57,2.86-11.61-.2-1.08-1.62-.86-34.53-.49-38.93.13-1.52.17-4.05,1.26-5.13ZM94.18,23.15c-8.65,1.76-6.33,15.78,1.63,15.51,10.46-.35,9.32-17.74-1.63-15.51Z"/>
      <path d="M325.61,28.39c-.67-3.83-3.2-6.05-7.15-5.23-7.95,1.65-2.81,15.57-5.15,20.47-1.47,3.08-10.49,4.98-11.32.49s.27-12.5.04-17.74c-.33-7.65-5.5-30.19,9.11-25.82,4.93,1.48.88,10.48,4.32,12.69,2.6,1.67,13.32-2.97,19.53,3.78,3.88,4.22,4.42,19.09,2.75,24.47-2.12,6.82-12.13,5.77-12.13,3.6,0-4.72.73-12.53,0-16.72Z"/>
      <path d="M418.92,36.88c.67,1.07.2,4.43-.37,5.75-2.74,6.35-26.66,6.46-31.32,2.83-6.75-5.26-6.33-28.99,3.28-31.85,11.92-3.55,33.13-2.69,30.47,14.71-1.5,9.78-14.53,3.59-19.87,4.66-7.26,1.46-4.41,8.87,3.49,6.51,1.91-.57,2.8-3.15,6.17-3.67,1.6-.25,7.47-.03,8.16,1.07ZM399.05,21.17c-3.76,1.19-.39,5.05,3.78,4.85,6.45-.31,3.62-7.2-3.78-4.85Z"/>
      <path d="M254.64,36.88c.67,1.07.2,4.43-.37,5.75-2.74,6.35-26.66,6.46-31.32,2.83-5.05-3.94-4.92-23.99-1.49-28.76,4.07-5.67,24.74-5.28,30.3-2.01,4.55,2.69,6.95,13.07,3.49,17.1-4.3,5.01-24.31-2.34-23.04,5.33,1.14,6.89,11.98-.96,14.27-1.32,1.6-.25,7.48-.02,8.16,1.07ZM234.77,21.17c-3.76,1.19-.39,5.05,3.78,4.85,6.45-.31,3.62-7.2-3.78-4.85Z"/>
      <path d="M454.47,23.97c6.26,4.52,8.46,9.02,6.67,16.99s-19.38,7.19-25.9,6.64c-15.37-1.28-11.68-14.19-.18-11.66,3.31.73,5.19,4.98,9.84,3.58,4.57-1.37,1.51-4.72-2.18-5.31-3.07-.5-7.05,1.29-11.17.35-7.69-1.75-9.96-14.88-3.16-19.46,4.07-2.74,21.12-2.76,25.91-1.31,6.42,1.94,7.55,9.76.16,10.18ZM447.58,24.94c.56-3.72-7.27-5.3-7.86-2.44-.66,3.24,6.21,2.49,7.86,2.44Z"/>
      <path d="M355.9,13.44c4.45-.3,15.19.06,18.81,2.24,6.55,3.93,6.24,25.65.45,29.8-4.24,3.04-24.33,3.05-28.82.52-6.96-3.92-6.39-19.08-4.25-25.71,1.97-6.1,8.26-6.48,13.8-6.85ZM358.78,23.14c-7.55,1.15-7.75,16.58,2.69,14.57,7.86-1.51,4.98-15.74-2.69-14.57Z"/>
      <path d="M131.62,13.44c5.44-.58,17.45-.71,20.88,4.12,2.97,4.17,4.56,23.49.54,27.12-1.05.95-3.61,1.61-5.07,1.81-3.84.53-14.71,1.24-18.54,1.1-8.49-.29-12.9-6.66-10.94-14.85.84-3.5,5.47-6.84,5.46-7.31,0-.36-2.31-1.74-2.75-3.15-2.27-7.38,5.18-8.28,10.43-8.85ZM130.83,24.93c2.03.94,10.56,2.31,9.83-1.45-.52-2.67-9.12-1.79-9.83,1.45ZM141.65,37.72c3.41-5.39-13.34-5.29-9.4.07,1.3,1.76,8.91.7,9.4-.07Z"/>
      <path d="M181.99,28.39c-1.34-6.33-10.59-6.35-11.74,2.03-.95,6.86,3.22,16.3-7.45,16.26-2.73-.01-4.05-.23-4.96-3-1.11-3.37-1-27.38,1.47-29.12,2.65-1.86,10.16.52,13.23.44,6.61-.17,16.61-4.98,20.77,4.03,1.87,4.04,2.54,21.56.38,24.98-2.31,3.66-11.7,3.17-11.7,1.08,0-4.4.78-13.04,0-16.72Z"/>
      <path d="M273.7,36.52c4.87,5.03,11.65-3.46,16.09-3.64,10.05-.42,7.65,12.1-.55,14.22-5.2,1.34-19.39.96-24.2-1.48-7.19-3.64-6.91-23.17-1.94-28.59,5.58-6.08,31.42-6.67,32.97,4.55,1.79,12.95-13.42,2.44-16.66,1.77-7.61-1.56-9.2,9.56-5.71,13.17Z"/>
      <path d="M42.44,46.44c-1.59-.98-2.31-19.02-2.1-21.97s.56-10.2,3.43-10.34c7.67,1.19,26.14-5.17,27.98,6.45,1.05,6.63-1.3,9.67-8.1,8.09-2.48-.58-5.91-5.08-7.61-4.28-5.32,2.5-1.39,14.99-3.42,19.24-1.21,2.54-8.21,4.03-10.19,2.81Z"/>
    </g>
  </g>
</svg>